Coordinates
version=1
nRows=19
nColumns=63
inDegrees=yes

Units are S.I. units (second, meters, Newtons, ...)
If the header above contains a line with 'inDegrees', this indicates whether rotational values are in degrees (yes) or radians (no).

endheader
time	pelvis_tilt	pelvis_list	pelvis_rotation	pelvis_tx	pelvis_ty	pelvis_tz	hip_flexion_r	hip_adduction_r	hip_rotation_r	knee_angle_r	knee_angle_r_beta	ankle_angle_r	subtalar_angle_r	mtp_angle_r	hip_flexion_l	hip_adduction_l	hip_rotation_l	knee_angle_l	knee_angle_l_beta	ankle_angle_l	subtalar_angle_l	mtp_angle_l	L5_S1_Flex_Ext	L5_S1_Lat_Bending	L5_S1_axial_rotation	L4_L5_Flex_Ext	L4_L5_Lat_Bending	L4_L5_axial_rotation	L3_L4_Flex_Ext	L3_L4_Lat_Bending	L3_L4_axial_rotation	L2_L3_Flex_Ext	L2_L3_Lat_Bending	L2_L3_axial_rotation	L1_L2_Flex_Ext	L1_L2_Lat_Bending	L1_L2_axial_rotation	L1_T12_Flex_Ext	L1_T12_Lat_Bending	L1_T12_axial_rotation	Abs_r3	Abs_r2	Abs_r1	Abs_t1	Abs_t2	neck_flexion	neck_bending	neck_rotation	arm_flex_r	arm_add_r	arm_rot_r	elbow_flex_r	pro_sup_r	wrist_flex_r	wrist_dev_r	arm_flex_l	arm_add_l	arm_rot_l	elbow_flex_l	pro_sup_l	wrist_flex_l	wrist_dev_l
2.315789	-2.391736	-1.633555	93.255648	0.263205	0.418455	0.801009	-3.942467	-2.034970	-8.872828	9.166602	0.159987	26.956882	-1.087108	0.000000	-0.555397	2.507883	-4.509618	13.900055	0.242602	32.159447	8.413078	0.000000	0.022891	-0.150037	0.914931	0.042511	-0.199549	0.972115	0.037608	-0.364800	0.972115	0.026162	-0.364800	0.800565	0.021257	-0.305955	0.743382	0.013080	-0.232407	0.686199	0.163510	-1.697247	5.088574	0.000000	0.000000	25.971158	-3.071348	-2.001682	-10.642717	-16.623230	45.485745	28.361066	83.459108	-2.325270	-7.682002	-14.006239	-20.345644	34.933282	37.256278	85.292273	1.535397	0.293154
2.333333	-2.361477	-1.735929	93.395904	0.262950	0.418337	0.801175	-3.832485	-2.007503	-8.706436	9.196601	0.160511	26.739779	-1.602170	0.000000	-0.468677	2.519321	-4.111020	13.777650	0.240465	32.181453	8.202093	0.000000	0.022709	-0.145316	0.922918	0.042173	-0.193270	0.980601	0.037308	-0.353320	0.980601	0.025954	-0.353320	0.807554	0.021087	-0.296328	0.749871	0.012976	-0.225094	0.692189	0.162207	-1.643839	5.132995	0.000000	0.000000	25.843340	-3.175084	-2.172327	-10.655410	-16.612815	44.838014	28.460051	83.664677	-1.950371	-7.198834	-13.921606	-20.438782	34.729462	37.645822	85.666780	1.700798	0.800885
2.350877	-2.327902	-1.846583	93.549643	0.262687	0.418230	0.801299	-3.720642	-1.974466	-8.537841	9.209059	0.160728	26.570323	-2.066153	0.000000	-0.379374	2.525010	-3.728364	13.640204	0.238066	32.233855	8.037719	0.000000	0.024149	-0.141096	0.930824	0.044848	-0.187657	0.989001	0.039675	-0.343060	0.989001	0.027600	-0.343060	0.814471	0.022425	-0.287722	0.756295	0.013799	-0.218557	0.698118	0.172496	-1.596101	5.176965	0.000000	0.000000	25.744532	-3.261962	-2.348322	-10.661660	-16.611091	44.177738	28.576509	83.885561	-1.519544	-6.676742	-13.848337	-20.538935	34.565072	38.024368	85.966522	1.774292	1.262952
2.368421	-2.290441	-1.962260	93.671941	0.262487	0.418126	0.801379	-3.601040	-1.936023	-8.304740	9.206891	0.160691	26.449239	-2.507470	0.000000	-0.295980	2.518249	-3.457198	13.487738	0.235405	32.310134	7.978340	0.000000	0.026391	-0.137087	0.948028	0.049010	-0.182325	1.007280	0.043357	-0.333312	1.007280	0.030162	-0.333312	0.829525	0.024506	-0.279547	0.770273	0.015080	-0.212347	0.711021	0.188506	-1.550750	5.272650	0.000000	0.000000	25.685648	-3.342815	-2.532562	-10.668699	-16.609174	43.514463	28.695827	83.870058	-1.006924	-6.160391	-13.758605	-20.652480	34.486851	38.368695	86.198222	1.853592	1.667663
2.385965	-2.247513	-2.081887	93.784404	0.262311	0.418026	0.801426	-3.479289	-1.890626	-8.081046	9.187414	0.160351	26.384213	-2.869071	0.000000	-0.212588	2.497274	-3.263293	13.334905	0.232738	32.394690	8.004475	0.000000	0.028931	-0.132906	0.962589	0.053728	-0.176765	1.022751	0.047531	-0.323148	1.022751	0.033065	-0.323148	0.842265	0.026866	-0.271022	0.782104	0.016531	-0.205871	0.721942	0.206653	-1.503459	5.353632	0.000000	0.000000	25.669910	-3.400105	-2.677330	-10.637990	-16.616811	42.986371	28.801062	83.621380	-0.494227	-5.708715	-13.661119	-20.761394	34.518401	38.648147	86.306382	1.855466	1.961010
2.403509	-2.206120	-2.199639	93.867724	0.262197	0.417909	0.801441	-3.357670	-1.841499	-7.793766	9.157576	0.159830	26.357028	-3.238307	0.000000	-0.125748	2.469664	-3.148101	13.207886	0.230521	32.474653	8.057451	0.000000	0.030783	-0.129949	0.977479	0.057168	-0.172833	1.038571	0.050574	-0.315959	1.038571	0.035182	-0.315959	0.855294	0.028585	-0.264993	0.794202	0.017590	-0.201292	0.733109	0.219882	-1.470015	5.436445	0.000000	0.000000	25.707439	-3.445042	-2.841465	-10.586799	-16.621883	42.541073	28.909720	83.231575	-0.036291	-5.298770	-13.558530	-20.867188	34.594117	38.865195	86.426263	1.871573	2.185010
2.421053	-2.163678	-2.313510	93.961136	0.262074	0.417776	0.801473	-3.241602	-1.792333	-7.601512	9.122836	0.159224	26.380934	-3.480317	0.000000	-0.022194	2.437569	-3.036968	13.127949	0.229126	32.539416	8.093777	0.000000	0.031420	-0.127402	0.981419	0.058350	-0.169445	1.042758	0.051620	-0.309765	1.042758	0.035910	-0.309765	0.858741	0.029177	-0.259798	0.797403	0.017953	-0.197346	0.736064	0.224430	-1.441197	5.458357	0.000000	0.000000	25.781876	-3.484921	-3.008750	-10.469219	-16.638699	42.364580	28.989869	82.716979	0.295332	-4.994570	-13.412018	-20.961258	34.888106	38.945805	86.395093	1.806468	2.199816
2.438596	-2.126181	-2.417858	94.047967	0.261964	0.417632	0.801536	-3.135548	-1.750536	-7.501053	9.087865	0.158613	26.440398	-3.592540	0.000000	0.097714	2.406047	-2.951139	13.108499	0.228786	32.588763	8.114329	0.000000	0.029882	-0.125835	0.975430	0.055494	-0.167361	1.036394	0.049094	-0.305956	1.036394	0.034152	-0.305956	0.853501	0.027749	-0.256603	0.792537	0.017075	-0.194919	0.731572	0.213446	-1.423472	5.425047	0.000000	0.000000	25.878630	-3.503689	-3.172087	-10.251497	-16.671020	42.612545	29.009377	82.114914	0.374208	-4.839313	-13.218732	-21.045257	35.428290	38.887653	86.166700	1.603889	1.999404
2.456140	-2.090960	-2.510874	94.128716	0.261866	0.417474	0.801638	-3.038236	-1.711856	-7.481706	9.059697	0.158122	26.515161	-3.619787	0.000000	0.238024	2.371734	-2.890053	13.159020	0.229668	32.628741	8.127732	0.000000	0.025975	-0.124544	0.961673	0.048237	-0.165644	1.021777	0.042674	-0.302817	1.021777	0.029686	-0.302817	0.841464	0.024120	-0.253971	0.781359	0.014842	-0.192919	0.721255	0.185534	-1.408871	5.348535	0.000000	0.000000	25.976210	-3.508418	-3.337993	-9.957250	-16.710672	43.183306	28.966846	81.454973	0.277401	-4.802816	-12.977775	-21.107136	36.144261	38.696990	85.825152	1.357837	1.630984
2.473684	-2.059844	-2.592867	94.219946	0.261743	0.417307	0.801787	-2.951268	-1.682852	-7.618134	9.041034	0.157796	26.613167	-3.493979	0.000000	0.406084	2.343529	-2.795999	13.289321	0.231942	32.654827	8.076488	0.000000	0.019645	-0.123351	0.937799	0.036482	-0.164057	0.996411	0.032274	-0.299917	0.996411	0.022452	-0.299917	0.820574	0.018242	-0.251538	0.761961	0.011225	-0.191071	0.703349	0.140319	-1.395375	5.215755	0.000000	0.000000	26.063750	-3.492672	-3.484749	-9.586060	-16.754228	44.117886	28.841733	80.622301	0.033553	-4.917143	-12.708555	-21.137662	36.938639	38.399701	85.439891	1.090677	1.150215
2.491228	-2.029096	-2.660858	94.306994	0.261625	0.417133	0.801973	-2.874002	-1.655791	-7.838881	9.033112	0.157658	26.715601	-3.304188	0.000000	0.599275	2.311379	-2.719531	13.500368	0.235626	32.687670	8.015802	0.000000	0.010663	-0.121539	0.906884	0.019803	-0.161647	0.963564	0.017518	-0.295510	0.963564	0.012187	-0.295510	0.793524	0.009902	-0.247842	0.736843	0.006093	-0.188264	0.680163	0.076166	-1.374873	5.043818	0.000000	0.000000	26.134328	-3.457418	-3.589000	-9.142450	-16.797657	45.450386	28.621787	79.533727	-0.348661	-5.187989	-12.422889	-21.138252	37.789455	38.026226	84.993160	0.776256	0.603388
2.508772	-1.999175	-2.719625	94.401174	0.261482	0.416945	0.802199	-2.801949	-1.623788	-8.046579	9.032302	0.157643	26.788015	-3.208444	0.000000	0.826392	2.281986	-2.613971	13.794255	0.240755	32.729741	7.904346	0.000000	0.000082	-0.118861	0.869667	0.000152	-0.158086	0.924021	0.000134	-0.289000	0.924021	0.000094	-0.289000	0.760958	0.000076	-0.242382	0.706604	0.000047	-0.184116	0.652250	0.000585	-1.344584	4.836825	0.000000	0.000000	26.181425	-3.429792	-3.649867	-8.662181	-16.828121	47.052223	28.302622	78.154446	-0.771174	-5.586142	-12.134943	-21.095024	38.591100	37.588225	84.584439	0.499197	0.042933
2.526316	-1.964984	-2.769319	94.501918	0.261296	0.416734	0.802456	-2.733736	-1.588504	-8.288473	9.041383	0.157802	26.854690	-3.128319	0.000000	1.087823	2.249580	-2.488320	14.169797	0.247310	32.795085	7.759493	0.000000	-0.011721	-0.114345	0.830101	-0.021767	-0.152078	0.881982	-0.019257	-0.278018	0.881982	-0.013396	-0.278018	0.726338	-0.010884	-0.233172	0.674457	-0.006697	-0.177120	0.622576	-0.083723	-1.293490	4.616771	0.000000	0.000000	26.205814	-3.436507	-3.665288	-8.212256	-16.831770	48.598011	27.918148	76.791191	-1.178801	-6.009652	-11.834024	-21.015513	39.396035	37.098488	84.177679	0.237403	-0.529914
2.543860	-1.921911	-2.809112	94.625021	0.261049	0.416501	0.802762	-2.671356	-1.542926	-8.553341	9.057181	0.158078	26.909461	-3.091685	0.000000	1.384166	2.209889	-2.332055	14.624762	0.255250	32.885795	7.590718	0.000000	-0.024533	-0.107596	0.784273	-0.045560	-0.143102	0.833290	-0.040305	-0.261608	0.833290	-0.028038	-0.261608	0.686239	-0.022781	-0.219409	0.637222	-0.014018	-0.166666	0.588205	-0.175234	-1.217143	4.361892	0.000000	0.000000	26.208028	-3.471575	-3.610740	-7.778993	-16.815213	50.135877	27.476288	75.454924	-1.564470	-6.402933	-11.537935	-20.905003	40.175144	36.592477	83.743196	-0.032049	-1.064169
2.561404	-1.866792	-2.845442	94.788654	0.260701	0.416229	0.803114	-2.610166	-1.487242	-8.894396	9.081945	0.158510	26.966572	-3.042006	0.000000	1.713527	2.167301	-2.083398	15.142787	0.264291	32.987714	7.337036	0.000000	-0.036585	-0.098449	0.732730	-0.067942	-0.130937	0.778526	-0.060106	-0.239368	0.778526	-0.041813	-0.239368	0.641139	-0.033973	-0.200757	0.595343	-0.020905	-0.152497	0.549548	-0.261324	-1.113672	4.075226	0.000000	0.000000	26.186872	-3.558829	-3.516667	-7.421121	-16.765619	51.369823	27.018797	74.366133	-1.858738	-6.662809	-11.239557	-20.769392	40.923321	36.072226	83.345130	-0.244339	-1.555275
2.578947	-1.798504	-2.872579	94.985187	0.260266	0.415925	0.803525	-2.556230	-1.420083	-9.286513	9.114339	0.159075	27.014546	-2.988707	0.000000	2.060340	2.113177	-1.810792	15.706831	0.274136	33.105292	7.088159	0.000000	-0.047987	-0.087122	0.671436	-0.089117	-0.115873	0.713400	-0.078838	-0.211829	0.713400	-0.054844	-0.211829	0.587506	-0.044561	-0.177660	0.545541	-0.027420	-0.134953	0.503577	-0.342766	-0.985546	3.734323	0.000000	0.000000	26.144801	-3.648801	-3.335910	-7.081789	-16.718974	52.488447	26.565881	73.528673	-2.104883	-6.752114	-10.966767	-20.610224	41.591882	35.566879	82.955911	-0.428852	-1.954420
2.596491	-1.718906	-2.891325	95.221334	0.259741	0.415587	0.803995	-2.511513	-1.344061	-9.750546	9.153647	0.159761	27.051415	-2.909739	0.000000	2.415736	2.051626	-1.493592	16.296670	0.284431	33.226846	6.830530	0.000000	-0.058080	-0.074149	0.602477	-0.107860	-0.098618	0.640131	-0.095419	-0.180285	0.640131	-0.066380	-0.180285	0.527167	-0.053933	-0.151204	0.489512	-0.033187	-0.114856	0.451857	-0.414859	-0.838784	3.350794	0.000000	0.000000	26.083089	-3.740923	-3.089117	-6.793225	-16.669006	53.284364	26.165302	73.113146	-2.255900	-6.574675	-10.717820	-20.437733	42.163969	35.092566	82.623340	-0.557549	-2.268803
2.614035	-1.630887	-2.902650	95.496602	0.259127	0.415227	0.804512	-2.477236	-1.260594	-10.261892	9.196702	0.160513	27.068038	-2.824612	0.000000	2.773701	1.986682	-1.128829	16.897761	0.294922	33.350102	6.574831	0.000000	-0.066282	-0.060031	0.525521	-0.123093	-0.079841	0.558366	-0.108895	-0.145959	0.558366	-0.075754	-0.145959	0.459830	-0.061550	-0.122415	0.426985	-0.037874	-0.092988	0.394140	-0.473447	-0.679082	2.922787	0.000000	0.000000	26.004766	-3.800841	-2.763376	-6.536949	-16.636883	53.805767	25.845085	73.133111	-2.343897	-6.113549	-10.503760	-20.263680	42.639491	34.674214	82.325128	-0.654391	-2.502501
2.631579	-1.535871	-2.910576	95.800652	0.258447	0.414842	0.805046	-2.452120	-1.169798	-10.768996	9.235395	0.161188	27.071841	-2.760183	0.000000	3.130108	1.918469	-0.736358	17.494065	0.305329	33.480822	6.337693	0.000000	-0.071627	-0.045084	0.446341	-0.133018	-0.059962	0.474238	-0.117675	-0.109617	0.474238	-0.081862	-0.109617	0.390549	-0.066513	-0.091935	0.362652	-0.040927	-0.069835	0.334756	-0.511622	-0.509999	2.482417	0.000000	0.000000	25.919208	-3.809159	-2.367017	-6.341392	-16.621773	53.950864	25.632845	73.574589	-2.337208	-5.400804	-10.331313	-20.096217	42.985729	34.332706	82.103012	-0.682234	-2.652373
